<svg id="noun_Video_1955876" xmlns="http://www.w3.org/2000/svg" width="33.898" height="33.898" viewBox="0 0 33.898 33.898">
  <path id="Path_629" data-name="Path 629" d="M16.949,33.9A16.949,16.949,0,1,1,33.9,16.949,16.949,16.949,0,0,1,16.949,33.9Zm0-31.961A15.012,15.012,0,1,0,31.961,16.949,15.012,15.012,0,0,0,16.949,1.937Z" transform="translate(0 0)" fill="#fff"/>
  <path id="Path_630" data-name="Path 630" d="M353.505,301.779a2.421,2.421,0,0,1-1.211-.329,2.387,2.387,0,0,1-1.211-2.1V289.29a2.421,2.421,0,0,1,3.632-2.1l8.717,5.032a2.421,2.421,0,0,1,0,4.194l-8.717,5.031A2.422,2.422,0,0,1,353.505,301.779Zm0-12.978a.491.491,0,0,0-.484.489v10.063a.484.484,0,0,0,.726.421l8.717-5.031a.484.484,0,0,0,0-.843l-8.717-5.031A.484.484,0,0,0,353.505,288.8Z" transform="translate(-339.461 -277.372)" fill="#fff"/>
</svg>
