<svg xmlns="http://www.w3.org/2000/svg" width="33.898" height="33.898"><path data-name="Path 629" d="M16.949 33.9A16.949 16.949 0 1133.9 16.949 16.949 16.949 0 0116.949 33.9zm0-31.961a15.012 15.012 0 1015.012 15.01A15.012 15.012 0 0016.949 1.937z" fill="#fff"/><path data-name="Path 630" d="M14.044 24.407a2.421 2.421 0 01-1.211-.329 2.387 2.387 0 01-1.211-2.1v-10.06a2.421 2.421 0 013.632-2.1l8.717 5.032a2.421 2.421 0 010 4.194l-8.717 5.031a2.422 2.422 0 01-1.21.332zm0-12.978a.491.491 0 00-.484.489v10.063a.484.484 0 00.726.421l8.717-5.031a.484.484 0 000-.843l-8.717-5.031a.484.484 0 00-.242-.069z" fill="#fff"/></svg>